# xmcd
#
# Track frame offsets:
# 182
# 11115
# 28440
# 50087
# 73295
# 90787
# 108847
# 123275
# 138130
# 154797
# 167465
# 180122
# 193645
# 207707
# 220847
# 235845
#
# Disc length: 3358 seconds
#
#
# Revision: 0
# Processed by: cddbd v1.5.2PL0 Copyright (c) Steve Scherf et al.
# Submitted via: Nero 7, 11, 10, 0 
#
DISCID=d90d1c10
DTITLE=Rockin' Sidney - Live With The Blues
DYEAR=1988
DGENRE=Blues
TTITLE0=Take My Money
TTITLE1=Live With Blues
TTITLE2=Honey Why
TTITLE3=Blues In June
TTITLE4=No Blues At All
TTITLE5=Just Jammin'
TTITLE6=I'm Your Man
TTITLE7=Hot Stepper's Dance Zydeco
TTITLE8=Bay Tie In Your Room
TTITLE9=I Need A Man To Ring My Bell
TTITLE10=I Got The Blues For My Baby
TTITLE11=Lonely Lost Frog
TTITLE12=Every Dog Has His Day
TTITLE13=Cajun Cow Boy Two Step
TTITLE14=Don't Mess With My Tush
TTITLE15=Rock and Roll Me Baby
EXTD=
EXTT0=Take My Money
EXTT1=Live With Blues
EXTT2=Honey Why
EXTT3=Blues In June
EXTT4=No Blues At All
EXTT5=Just Jammin'
EXTT6=I'm Your Man
EXTT7=Hot Stepper's Dance Zydeco
EXTT8=Bay Tie In Your Room
EXTT9=I Need A Man To Ring My Bell
EXTT10=I Got The Blues For My Baby
EXTT11=Lonely Lost Frog
EXTT12=Every Dog Has His Day
EXTT13=Cajun Cow Boy Two Step
EXTT14=Don't Mess With My Tush
EXTT15=Rock and Roll Me Baby
PLAYORDER=
